<svg width="28" height="28" viewBox="0 0 28 28" fill="none" xmlns="http://www.w3.org/2000/svg">
<path d="M15.6591 14.416L12.5488 14.4167V18.3221H15.6591C16.7357 18.3221 17.6118 17.4459 17.6118 16.3691C17.6118 15.8504 17.4079 15.3607 17.0376 14.9903C16.6672 14.6199 16.1776 14.416 15.6591 14.416Z" fill="#FEA828"/>
<path d="M16.7697 11.227C16.7697 10.8159 16.608 10.4279 16.3142 10.1341C16.0205 9.84042 15.6324 9.67866 15.2215 9.67871H12.5488V12.7747H15.2467C16.0887 12.7611 16.7697 12.0723 16.7697 11.227Z" fill="#FEA828"/>
<path d="M14 4.59375C8.81338 4.59375 4.59375 8.81338 4.59375 14C4.59375 19.1866 8.81338 23.4062 14 23.4062C19.1866 23.4062 23.4062 19.1866 23.4062 14C23.4062 8.81338 19.1866 4.59375 14 4.59375ZM15.6588 19.962H14.8203V21.5469H13.1797V19.962H9.56818V18.3214H10.9079V9.67865H9.56818V8.03802H13.1797V6.45312H14.8203V8.03802H15.2212C16.0703 8.03797 16.8704 8.37036 17.4741 8.974C18.0777 9.57764 18.4101 10.3778 18.41 11.227C18.41 12.0404 18.1034 12.7833 17.6004 13.3472C17.8132 13.485 18.0136 13.6457 18.1974 13.8295C18.8776 14.5099 19.2522 15.4115 19.2521 16.3684C19.2521 18.3499 17.6402 19.962 15.6588 19.962Z" fill="#FEA828"/>
<path d="M23.8995 4.10047C21.2552 1.45627 17.7395 0 14 0C10.2605 0 6.74477 1.45627 4.10047 4.10047C1.45627 6.74477 0 10.2605 0 14C0 17.7395 1.45627 21.2552 4.10047 23.8995C6.74477 26.5437 10.2605 28 14 28C17.7395 28 21.2552 26.5437 23.8995 23.8995C26.5437 21.2552 28 17.7395 28 14C28 10.2605 26.5437 6.74477 23.8995 4.10047ZM14 25.0469C7.90874 25.0469 2.95312 20.0913 2.95312 14C2.95312 7.90874 7.90874 2.95312 14 2.95312C20.0913 2.95312 25.0469 7.90874 25.0469 14C25.0469 20.0913 20.0913 25.0469 14 25.0469Z" fill="#FEA828"/>
</svg>
