<svg width="28" height="28" viewBox="0 0 28 28" fill="none" xmlns="http://www.w3.org/2000/svg">
<g clip-path="url(#clip0)">
<path d="M13.9964 0L13.8086 0.638082V19.1521L13.9964 19.3395L22.5903 14.2596L13.9964 0Z" fill="#343434"/>
<path d="M13.9944 0L5.40039 14.2596L13.9944 19.3395V10.3533V0Z" fill="#8C8C8C"/>
<path d="M13.9965 20.9669L13.8906 21.096V27.691L13.9965 28.0001L22.5956 15.8896L13.9965 20.9669Z" fill="#3C3C3B"/>
<path d="M13.9944 28.0001V20.9669L5.40039 15.8896L13.9944 28.0001Z" fill="#8C8C8C"/>
<path d="M14 19.3397L22.5938 14.2598L14 10.3535V19.3397Z" fill="#141414"/>
<path d="M5.40039 14.2598L13.9944 19.3397V10.3535L5.40039 14.2598Z" fill="#393939"/>
</g>
<rect x="0.5" y="0.5" width="27" height="27" rx="13.5" stroke="black" stroke-opacity="0.04"/>
<defs>
<clipPath id="clip0">
<rect width="28" height="28" rx="14" fill="white"/>
</clipPath>
</defs>
</svg>
